<svg width="19" height="18" viewBox="0 0 19 18" fill="none" xmlns="http://www.w3.org/2000/svg">
<g id="cancel 1" clip-path="url(#clip0_24_427)">
<g id="Group">
<g id="Group_2">
<path id="Vector" d="M10.5551 9.00505L18.2709 1.28919C18.5687 1.00158 18.577 0.527032 18.2894 0.229233C18.0018 -0.0685669 17.5272 -0.0768245 17.2294 0.210785C17.2232 0.216802 17.217 0.222952 17.211 0.229233L9.49507 7.9451L1.77921 0.229189C1.48141 -0.0584206 1.00686 -0.0501631 0.719251 0.247636C0.43867 0.538145 0.43867 0.99868 0.719251 1.28919L8.43512 9.00505L0.719251 16.7209C0.426591 17.0136 0.426591 17.4882 0.719251 17.7809C1.01196 18.0735 1.4865 18.0735 1.77921 17.7809L9.49507 10.065L17.2109 17.7809C17.5087 18.0685 17.9833 18.0602 18.2709 17.7624C18.5514 17.4719 18.5514 17.0114 18.2709 16.7209L10.5551 9.00505Z" fill="white"/>
</g>
</g>
</g>
<defs>
<clipPath id="clip0_24_427">
<rect width="18" height="18" fill="white" transform="translate(0.5)"/>
</clipPath>
</defs>
</svg>
