<svg width="35" height="35" viewBox="0 0 35 35" fill="none" xmlns="http://www.w3.org/2000/svg">
<g id="keyboard 1" opacity="0.8">
<g id="Group">
<path id="Vector" d="M34.248 25.9082V9.0918C34.248 8.08691 33.3799 7.2666 32.3135 7.2666H2.68652C1.62012 7.2666 0.751953 8.08691 0.751953 9.0918V25.9082C0.751953 26.9131 1.62012 27.7334 2.68652 27.7334H32.3135C33.3799 27.7334 34.248 26.9199 34.248 25.9082ZM2.42676 25.9082V9.0918C2.42676 9.03027 2.5293 8.94141 2.68652 8.94141H32.3135C32.4775 8.94141 32.5732 9.03711 32.5732 9.0918V25.9082C32.5732 25.9697 32.4707 26.0586 32.3135 26.0586H2.68652C2.5293 26.0586 2.42676 25.9697 2.42676 25.9082Z" fill="#2896B8"/>
<path id="Vector_2" d="M6.78809 14.1094C7.36572 14.1094 7.83398 13.6411 7.83398 13.0635C7.83398 12.4858 7.36572 12.0176 6.78809 12.0176C6.21045 12.0176 5.74219 12.4858 5.74219 13.0635C5.74219 13.6411 6.21045 14.1094 6.78809 14.1094Z" fill="#2896B8"/>
<path id="Vector_3" d="M11.0742 14.1094C11.6519 14.1094 12.1201 13.6411 12.1201 13.0635C12.1201 12.4858 11.6519 12.0176 11.0742 12.0176C10.4966 12.0176 10.0283 12.4858 10.0283 13.0635C10.0283 13.6411 10.4966 14.1094 11.0742 14.1094Z" fill="#2896B8"/>
<path id="Vector_4" d="M15.3535 14.1094C15.9311 14.1094 16.3994 13.6411 16.3994 13.0635C16.3994 12.4858 15.9311 12.0176 15.3535 12.0176C14.7759 12.0176 14.3076 12.4858 14.3076 13.0635C14.3076 13.6411 14.7759 14.1094 15.3535 14.1094Z" fill="#2896B8"/>
<path id="Vector_5" d="M19.6396 14.1094C20.2173 14.1094 20.6855 13.6411 20.6855 13.0635C20.6855 12.4858 20.2173 12.0176 19.6396 12.0176C19.062 12.0176 18.5938 12.4858 18.5938 13.0635C18.5938 13.6411 19.062 14.1094 19.6396 14.1094Z" fill="#2896B8"/>
<path id="Vector_6" d="M23.9258 14.1094C24.5034 14.1094 24.9717 13.6411 24.9717 13.0635C24.9717 12.4858 24.5034 12.0176 23.9258 12.0176C23.3481 12.0176 22.8799 12.4858 22.8799 13.0635C22.8799 13.6411 23.3481 14.1094 23.9258 14.1094Z" fill="#2896B8"/>
<path id="Vector_7" d="M28.2119 14.1094C28.7896 14.1094 29.2578 13.6411 29.2578 13.0635C29.2578 12.4858 28.7896 12.0176 28.2119 12.0176C27.6343 12.0176 27.166 12.4858 27.166 13.0635C27.166 13.6411 27.6343 14.1094 28.2119 14.1094Z" fill="#2896B8"/>
<path id="Vector_8" d="M8.93457 18.5459C9.5122 18.5459 9.98047 18.0776 9.98047 17.5C9.98047 16.9224 9.5122 16.4541 8.93457 16.4541C8.35694 16.4541 7.88867 16.9224 7.88867 17.5C7.88867 18.0776 8.35694 18.5459 8.93457 18.5459Z" fill="#2896B8"/>
<path id="Vector_9" d="M13.2139 18.5459C13.7915 18.5459 14.2598 18.0776 14.2598 17.5C14.2598 16.9224 13.7915 16.4541 13.2139 16.4541C12.6362 16.4541 12.168 16.9224 12.168 17.5C12.168 18.0776 12.6362 18.5459 13.2139 18.5459Z" fill="#2896B8"/>
<path id="Vector_10" d="M17.5 18.5459C18.0776 18.5459 18.5459 18.0776 18.5459 17.5C18.5459 16.9224 18.0776 16.4541 17.5 16.4541C16.9224 16.4541 16.4541 16.9224 16.4541 17.5C16.4541 18.0776 16.9224 18.5459 17.5 18.5459Z" fill="#2896B8"/>
<path id="Vector_11" d="M21.7793 18.5459C22.3569 18.5459 22.8252 18.0776 22.8252 17.5C22.8252 16.9224 22.3569 16.4541 21.7793 16.4541C21.2017 16.4541 20.7334 16.9224 20.7334 17.5C20.7334 18.0776 21.2017 18.5459 21.7793 18.5459Z" fill="#2896B8"/>
<path id="Vector_12" d="M26.0654 16.4541C25.4844 16.4541 25.0195 16.9258 25.0195 17.5C25.0195 18.0811 25.4912 18.5459 26.0654 18.5459C26.6465 18.5459 27.1113 18.0742 27.1113 17.5C27.1113 16.9189 26.6465 16.4541 26.0654 16.4541Z" fill="#2896B8"/>
<path id="Vector_13" d="M24.9717 21.1025H10.0283C9.56348 21.1025 9.1875 21.4785 9.1875 21.9434C9.1875 22.4082 9.56348 22.7842 10.0283 22.7842H24.9717C25.4365 22.7842 25.8125 22.4082 25.8125 21.9434C25.8125 21.4785 25.4365 21.1025 24.9717 21.1025Z" fill="#2896B8"/>
</g>
</g>
</svg>
