<svg width="43" height="42" viewBox="0 0 43 42" fill="none" xmlns="http://www.w3.org/2000/svg">
<g clip-path="url(#clip0_24_446)">
<path d="M21.5 42C33.098 42 42.5 32.598 42.5 21C42.5 9.40202 33.098 0 21.5 0C9.90202 0 0.5 9.40202 0.5 21C0.5 32.598 9.90202 42 21.5 42Z" fill="#B83028"/>
<g clip-path="url(#clip1_24_446)">
<path d="M22.5551 21.005L30.2709 13.2892C30.5687 13.0016 30.577 12.527 30.2894 12.2292C30.0018 11.9314 29.5272 11.9232 29.2294 12.2108C29.2232 12.2168 29.217 12.223 29.211 12.2292L21.4951 19.9451L13.7792 12.2292C13.4814 11.9416 13.0069 11.9498 12.7193 12.2476C12.4387 12.5381 12.4387 12.9987 12.7193 13.2892L20.4351 21.005L12.7193 28.7209C12.4266 29.0136 12.4266 29.4882 12.7193 29.7809C13.012 30.0735 13.4865 30.0735 13.7792 29.7809L21.4951 22.065L29.2109 29.7809C29.5087 30.0685 29.9833 30.0602 30.2709 29.7624C30.5514 29.4719 30.5514 29.0114 30.2709 28.7209L22.5551 21.005Z" fill="white"/>
</g>
</g>
<defs>
<clipPath id="clip0_24_446">
<rect width="42" height="42" fill="white" transform="translate(0.5)"/>
</clipPath>
<clipPath id="clip1_24_446">
<rect width="18" height="18" fill="white" transform="translate(12.5 12)"/>
</clipPath>
</defs>
</svg>
