<svg width="23" height="23" viewBox="0 0 23 23" fill="none" xmlns="http://www.w3.org/2000/svg">
<g id="video-camera (1) 1" clip-path="url(#clip0_19_332)">
<g id="Group">
<g id="Group_2">
<path id="Vector" d="M13.0098 4.74341H2.51641C1.13239 4.74341 0 5.87579 0 7.25982V15.7401C0 17.1242 1.13239 18.2565 2.51641 18.2565H13.0098C14.3939 18.2565 15.5263 17.1242 15.5263 15.7401V7.25982C15.5263 5.85063 14.3939 4.74341 13.0098 4.74341Z" fill="white"/>
</g>
</g>
<g id="Group_3">
<g id="Group_4">
<path id="Vector_2" d="M21.1379 6.12745C20.9869 6.15261 20.8359 6.2281 20.7101 6.30359L16.7845 8.56836V14.4064L20.7353 16.6712C21.465 17.099 22.3709 16.8474 22.7987 16.1176C22.9245 15.8911 23 15.6395 23 15.3627V7.58696C23 6.65589 22.1193 5.90097 21.1379 6.12745Z" fill="white"/>
</g>
</g>
</g>
<defs>
<clipPath id="clip0_19_332">
<rect width="23" height="23" fill="white"/>
</clipPath>
</defs>
</svg>
