<?xml version="1.0" encoding="UTF-8" standalone="no"?>
<!DOCTYPE svg PUBLIC "-//W3C//DTD SVG 1.1//EN" "http://www.w3.org/Graphics/SVG/1.1/DTD/svg11.dtd">
<svg xmlns="http://www.w3.org/2000/svg" version="1.1" viewBox="0.00 0.00 1280.00 498.00">
<path stroke="#9cd4e5" stroke-width="5.00" fill="none" stroke-linecap="butt" vector-effect="non-scaling-stroke" d="
  M 1.12 0.00
  Q 3.85 0.49 9.95 1.13
  Q 104.54 11.13 182.51 18.23
  C 312.24 30.05 438.28 38.11 565.11 40.78
  C 683.55 43.27 801.40 40.28 918.75 32.95
  Q 1011.24 27.17 1103.50 18.49
  Q 1162.62 12.92 1251.01 3.31
  Q 1271.01 1.14 1278.88 0.00"
/>
<path fill="#38a9cb" d="
  M 0.00 0.00
  L 1.12 0.00
  Q 3.85 0.49 9.95 1.13
  Q 104.54 11.13 182.51 18.23
  C 312.24 30.05 438.28 38.11 565.11 40.78
  C 683.55 43.27 801.40 40.28 918.75 32.95
  Q 1011.24 27.17 1103.50 18.49
  Q 1162.62 12.92 1251.01 3.31
  Q 1271.01 1.14 1278.88 0.00
  L 1280.00 0.00
  L 1280.00 498.00
  L 0.00 498.00
  L 0.00 0.00
  Z"
/>
<path fill="#ffffff" d="
  M 1.12 0.00
  L 1278.88 0.00
  Q 1271.01 1.14 1251.01 3.31
  Q 1162.62 12.92 1103.50 18.49
  Q 1011.24 27.17 918.75 32.95
  C 801.40 40.28 683.55 43.27 565.11 40.78
  C 438.28 38.11 312.24 30.05 182.51 18.23
  Q 104.54 11.13 9.95 1.13
  Q 3.85 0.49 1.12 0.00
  Z"
/>
</svg>
